<mxfile host="app.diagrams.net" agent="Mozilla/5.0 (Windows NT 10.0; Win64; x64) AppleWebKit/537.36 (KHTML, like Gecko) Chrome/129.0.0.0 Safari/537.36" version="24.7.17">
  <diagram id="R2lEEEUBdFMjLlhIrx00" name="Page-1">
    <mxGraphModel dx="1434" dy="772" grid="1" gridSize="10" guides="1" tooltips="1" connect="1" arrows="1" fold="1" page="1" pageScale="1" pageWidth="850" pageHeight="1100" math="0" shadow="0" extFonts="Permanent Marker^https://fonts.googleapis.com/css?family=Permanent+Marker">
      <root>
        <mxCell id="0" />
        <mxCell id="1" parent="0" />
        <mxCell id="KINWoWAg_GiYiKx88e6P-1" value="Comune" style="whiteSpace=wrap;html=1;align=center;" vertex="1" parent="1">
          <mxGeometry x="160" y="80" width="100" height="40" as="geometry" />
        </mxCell>
        <mxCell id="KINWoWAg_GiYiKx88e6P-2" value="si trova" style="shape=rhombus;perimeter=rhombusPerimeter;whiteSpace=wrap;html=1;align=center;" vertex="1" parent="1">
          <mxGeometry x="380" y="70" width="120" height="60" as="geometry" />
        </mxCell>
        <mxCell id="KINWoWAg_GiYiKx88e6P-3" value="Regione" style="whiteSpace=wrap;html=1;align=center;" vertex="1" parent="1">
          <mxGeometry x="580" y="80" width="100" height="40" as="geometry" />
        </mxCell>
        <mxCell id="KINWoWAg_GiYiKx88e6P-4" value="" style="endArrow=none;html=1;rounded=0;exitX=1;exitY=0.5;exitDx=0;exitDy=0;entryX=0;entryY=0.5;entryDx=0;entryDy=0;" edge="1" parent="1" source="KINWoWAg_GiYiKx88e6P-2" target="KINWoWAg_GiYiKx88e6P-3">
          <mxGeometry relative="1" as="geometry">
            <mxPoint x="420" y="400" as="sourcePoint" />
            <mxPoint x="580" y="400" as="targetPoint" />
          </mxGeometry>
        </mxCell>
        <mxCell id="KINWoWAg_GiYiKx88e6P-5" value="1" style="resizable=0;html=1;whiteSpace=wrap;align=right;verticalAlign=bottom;" connectable="0" vertex="1" parent="KINWoWAg_GiYiKx88e6P-4">
          <mxGeometry x="1" relative="1" as="geometry">
            <mxPoint x="10" as="offset" />
          </mxGeometry>
        </mxCell>
        <mxCell id="KINWoWAg_GiYiKx88e6P-6" value="" style="endArrow=none;html=1;rounded=0;exitX=1;exitY=0.5;exitDx=0;exitDy=0;entryX=0;entryY=0.5;entryDx=0;entryDy=0;" edge="1" parent="1" source="KINWoWAg_GiYiKx88e6P-1" target="KINWoWAg_GiYiKx88e6P-2">
          <mxGeometry relative="1" as="geometry">
            <mxPoint x="420" y="400" as="sourcePoint" />
            <mxPoint x="580" y="400" as="targetPoint" />
          </mxGeometry>
        </mxCell>
        <mxCell id="KINWoWAg_GiYiKx88e6P-7" value="N" style="resizable=0;html=1;whiteSpace=wrap;align=right;verticalAlign=bottom;" connectable="0" vertex="1" parent="KINWoWAg_GiYiKx88e6P-6">
          <mxGeometry x="1" relative="1" as="geometry">
            <mxPoint x="-120" as="offset" />
          </mxGeometry>
        </mxCell>
        <mxCell id="KINWoWAg_GiYiKx88e6P-8" value="Comune:&lt;div&gt;*Nome*&lt;br&gt;&lt;div&gt;Superficie&lt;/div&gt;&lt;div&gt;CAP&lt;/div&gt;&lt;div&gt;N abitanti&lt;/div&gt;&lt;div&gt;Provincia di appartenenza&lt;/div&gt;&lt;div&gt;Regione di appartenenza&lt;/div&gt;&lt;/div&gt;" style="text;strokeColor=none;fillColor=none;spacingLeft=4;spacingRight=4;overflow=hidden;rotatable=0;points=[[0,0.5],[1,0.5]];portConstraint=eastwest;fontSize=12;whiteSpace=wrap;html=1;" vertex="1" parent="1">
          <mxGeometry x="160" y="130" width="160" height="100" as="geometry" />
        </mxCell>
        <mxCell id="KINWoWAg_GiYiKx88e6P-9" value="Regione:&lt;div&gt;*Nome*&lt;br&gt;&lt;div&gt;Superficie&lt;/div&gt;&lt;div&gt;N abitanti&lt;/div&gt;&lt;div&gt;Array provincie&lt;/div&gt;&lt;div&gt;Array comuni&lt;/div&gt;&lt;div&gt;Capoluogo&lt;/div&gt;&lt;/div&gt;" style="text;strokeColor=none;fillColor=none;spacingLeft=4;spacingRight=4;overflow=hidden;rotatable=0;points=[[0,0.5],[1,0.5]];portConstraint=eastwest;fontSize=12;whiteSpace=wrap;html=1;" vertex="1" parent="1">
          <mxGeometry x="580" y="130" width="160" height="100" as="geometry" />
        </mxCell>
        <mxCell id="KINWoWAg_GiYiKx88e6P-10" value="Bibite" style="whiteSpace=wrap;html=1;align=center;" vertex="1" parent="1">
          <mxGeometry x="160" y="290" width="100" height="40" as="geometry" />
        </mxCell>
        <mxCell id="KINWoWAg_GiYiKx88e6P-12" value="Bar" style="whiteSpace=wrap;html=1;align=center;" vertex="1" parent="1">
          <mxGeometry x="580" y="290" width="100" height="40" as="geometry" />
        </mxCell>
        <mxCell id="KINWoWAg_GiYiKx88e6P-17" value="Bibite:&lt;div&gt;*Nome*&lt;/div&gt;&lt;div&gt;Casa prod&lt;/div&gt;&lt;div&gt;Array ingredienti&lt;/div&gt;" style="text;strokeColor=none;fillColor=none;spacingLeft=4;spacingRight=4;overflow=hidden;rotatable=0;points=[[0,0.5],[1,0.5]];portConstraint=eastwest;fontSize=12;whiteSpace=wrap;html=1;" vertex="1" parent="1">
          <mxGeometry x="160" y="340" width="160" height="70" as="geometry" />
        </mxCell>
        <mxCell id="KINWoWAg_GiYiKx88e6P-18" value="Bar:&lt;div&gt;Nome&lt;/div&gt;&lt;div&gt;Proprietario&lt;/div&gt;&lt;div&gt;*P Iva*&lt;/div&gt;&lt;div&gt;Menu&lt;/div&gt;" style="text;strokeColor=none;fillColor=none;spacingLeft=4;spacingRight=4;overflow=hidden;rotatable=0;points=[[0,0.5],[1,0.5]];portConstraint=eastwest;fontSize=12;whiteSpace=wrap;html=1;" vertex="1" parent="1">
          <mxGeometry x="580" y="340" width="160" height="100" as="geometry" />
        </mxCell>
        <mxCell id="KINWoWAg_GiYiKx88e6P-19" value="" style="endArrow=none;html=1;rounded=0;exitX=1;exitY=0.5;exitDx=0;exitDy=0;" edge="1" parent="1">
          <mxGeometry relative="1" as="geometry">
            <mxPoint x="260" y="309.5" as="sourcePoint" />
            <mxPoint x="580" y="309.5" as="targetPoint" />
          </mxGeometry>
        </mxCell>
        <mxCell id="KINWoWAg_GiYiKx88e6P-20" value="M" style="resizable=0;html=1;whiteSpace=wrap;align=left;verticalAlign=bottom;" connectable="0" vertex="1" parent="KINWoWAg_GiYiKx88e6P-19">
          <mxGeometry x="-1" relative="1" as="geometry" />
        </mxCell>
        <mxCell id="KINWoWAg_GiYiKx88e6P-21" value="N" style="resizable=0;html=1;whiteSpace=wrap;align=right;verticalAlign=bottom;" connectable="0" vertex="1" parent="KINWoWAg_GiYiKx88e6P-19">
          <mxGeometry x="1" relative="1" as="geometry" />
        </mxCell>
        <mxCell id="KINWoWAg_GiYiKx88e6P-11" value="si trova" style="shape=rhombus;perimeter=rhombusPerimeter;whiteSpace=wrap;html=1;align=center;" vertex="1" parent="1">
          <mxGeometry x="380" y="280" width="120" height="60" as="geometry" />
        </mxCell>
        <mxCell id="KINWoWAg_GiYiKx88e6P-22" value="Elezione Rappresentanti" style="whiteSpace=wrap;html=1;align=center;" vertex="1" parent="1">
          <mxGeometry x="160" y="460" width="100" height="40" as="geometry" />
        </mxCell>
        <mxCell id="KINWoWAg_GiYiKx88e6P-23" value="Classe" style="whiteSpace=wrap;html=1;align=center;" vertex="1" parent="1">
          <mxGeometry x="580" y="460" width="100" height="40" as="geometry" />
        </mxCell>
        <mxCell id="KINWoWAg_GiYiKx88e6P-24" value="Elezione Rappresentanti:&lt;div&gt;*Classe di appartenenza*&lt;br&gt;&lt;div&gt;Array Nomi Rappresentanti&lt;/div&gt;&lt;/div&gt;" style="text;strokeColor=none;fillColor=none;spacingLeft=4;spacingRight=4;overflow=hidden;rotatable=0;points=[[0,0.5],[1,0.5]];portConstraint=eastwest;fontSize=12;whiteSpace=wrap;html=1;" vertex="1" parent="1">
          <mxGeometry x="160" y="510" width="160" height="60" as="geometry" />
        </mxCell>
        <mxCell id="KINWoWAg_GiYiKx88e6P-25" value="Classe:&lt;div&gt;*Sezione + Anno*&lt;/div&gt;" style="text;strokeColor=none;fillColor=none;spacingLeft=4;spacingRight=4;overflow=hidden;rotatable=0;points=[[0,0.5],[1,0.5]];portConstraint=eastwest;fontSize=12;whiteSpace=wrap;html=1;" vertex="1" parent="1">
          <mxGeometry x="580" y="510" width="160" height="50" as="geometry" />
        </mxCell>
        <mxCell id="KINWoWAg_GiYiKx88e6P-26" value="" style="endArrow=none;html=1;rounded=0;exitX=1;exitY=0.5;exitDx=0;exitDy=0;" edge="1" parent="1">
          <mxGeometry relative="1" as="geometry">
            <mxPoint x="260" y="479.5" as="sourcePoint" />
            <mxPoint x="580" y="479.5" as="targetPoint" />
          </mxGeometry>
        </mxCell>
        <mxCell id="KINWoWAg_GiYiKx88e6P-27" value="N" style="resizable=0;html=1;whiteSpace=wrap;align=left;verticalAlign=bottom;" connectable="0" vertex="1" parent="KINWoWAg_GiYiKx88e6P-26">
          <mxGeometry x="-1" relative="1" as="geometry" />
        </mxCell>
        <mxCell id="KINWoWAg_GiYiKx88e6P-28" value="1" style="resizable=0;html=1;whiteSpace=wrap;align=right;verticalAlign=bottom;" connectable="0" vertex="1" parent="KINWoWAg_GiYiKx88e6P-26">
          <mxGeometry x="1" relative="1" as="geometry" />
        </mxCell>
        <mxCell id="KINWoWAg_GiYiKx88e6P-29" value="effettuata" style="shape=rhombus;perimeter=rhombusPerimeter;whiteSpace=wrap;html=1;align=center;" vertex="1" parent="1">
          <mxGeometry x="380" y="450" width="120" height="60" as="geometry" />
        </mxCell>
        <mxCell id="KINWoWAg_GiYiKx88e6P-30" value="Attori" style="whiteSpace=wrap;html=1;align=center;" vertex="1" parent="1">
          <mxGeometry x="160" y="600" width="100" height="40" as="geometry" />
        </mxCell>
        <mxCell id="KINWoWAg_GiYiKx88e6P-31" value="Film" style="whiteSpace=wrap;html=1;align=center;" vertex="1" parent="1">
          <mxGeometry x="580" y="600" width="100" height="40" as="geometry" />
        </mxCell>
        <mxCell id="KINWoWAg_GiYiKx88e6P-32" value="&lt;div&gt;Attori:&lt;/div&gt;&lt;div&gt;*Nome*&lt;br&gt;&lt;div&gt;CF&lt;/div&gt;&lt;/div&gt;" style="text;strokeColor=none;fillColor=none;spacingLeft=4;spacingRight=4;overflow=hidden;rotatable=0;points=[[0,0.5],[1,0.5]];portConstraint=eastwest;fontSize=12;whiteSpace=wrap;html=1;" vertex="1" parent="1">
          <mxGeometry x="160" y="650" width="160" height="60" as="geometry" />
        </mxCell>
        <mxCell id="KINWoWAg_GiYiKx88e6P-33" value="Film:&lt;div&gt;*Nome*&lt;/div&gt;&lt;div&gt;Casa Produttrice&lt;/div&gt;" style="text;strokeColor=none;fillColor=none;spacingLeft=4;spacingRight=4;overflow=hidden;rotatable=0;points=[[0,0.5],[1,0.5]];portConstraint=eastwest;fontSize=12;whiteSpace=wrap;html=1;" vertex="1" parent="1">
          <mxGeometry x="580" y="650" width="160" height="50" as="geometry" />
        </mxCell>
        <mxCell id="KINWoWAg_GiYiKx88e6P-34" value="" style="endArrow=none;html=1;rounded=0;exitX=1;exitY=0.5;exitDx=0;exitDy=0;" edge="1" parent="1">
          <mxGeometry relative="1" as="geometry">
            <mxPoint x="260" y="619.5" as="sourcePoint" />
            <mxPoint x="580" y="619.5" as="targetPoint" />
          </mxGeometry>
        </mxCell>
        <mxCell id="KINWoWAg_GiYiKx88e6P-35" value="M" style="resizable=0;html=1;whiteSpace=wrap;align=left;verticalAlign=bottom;" connectable="0" vertex="1" parent="KINWoWAg_GiYiKx88e6P-34">
          <mxGeometry x="-1" relative="1" as="geometry" />
        </mxCell>
        <mxCell id="KINWoWAg_GiYiKx88e6P-36" value="N" style="resizable=0;html=1;whiteSpace=wrap;align=right;verticalAlign=bottom;" connectable="0" vertex="1" parent="KINWoWAg_GiYiKx88e6P-34">
          <mxGeometry x="1" relative="1" as="geometry" />
        </mxCell>
        <mxCell id="KINWoWAg_GiYiKx88e6P-37" value="Recitano" style="shape=rhombus;perimeter=rhombusPerimeter;whiteSpace=wrap;html=1;align=center;" vertex="1" parent="1">
          <mxGeometry x="380" y="590" width="120" height="60" as="geometry" />
        </mxCell>
        <mxCell id="KINWoWAg_GiYiKx88e6P-38" value="Preside" style="whiteSpace=wrap;html=1;align=center;" vertex="1" parent="1">
          <mxGeometry x="160" y="740" width="100" height="40" as="geometry" />
        </mxCell>
        <mxCell id="KINWoWAg_GiYiKx88e6P-39" value="Scuola" style="whiteSpace=wrap;html=1;align=center;" vertex="1" parent="1">
          <mxGeometry x="580" y="740" width="100" height="40" as="geometry" />
        </mxCell>
        <mxCell id="KINWoWAg_GiYiKx88e6P-40" value="&lt;div&gt;Preside:&lt;/div&gt;&lt;div&gt;*Nome*&lt;br&gt;&lt;div&gt;CF&lt;/div&gt;&lt;/div&gt;" style="text;strokeColor=none;fillColor=none;spacingLeft=4;spacingRight=4;overflow=hidden;rotatable=0;points=[[0,0.5],[1,0.5]];portConstraint=eastwest;fontSize=12;whiteSpace=wrap;html=1;" vertex="1" parent="1">
          <mxGeometry x="160" y="790" width="160" height="60" as="geometry" />
        </mxCell>
        <mxCell id="KINWoWAg_GiYiKx88e6P-41" value="Scuola:&lt;div&gt;*Nome*&lt;/div&gt;&lt;div&gt;&lt;br&gt;&lt;/div&gt;" style="text;strokeColor=none;fillColor=none;spacingLeft=4;spacingRight=4;overflow=hidden;rotatable=0;points=[[0,0.5],[1,0.5]];portConstraint=eastwest;fontSize=12;whiteSpace=wrap;html=1;" vertex="1" parent="1">
          <mxGeometry x="580" y="790" width="160" height="40" as="geometry" />
        </mxCell>
        <mxCell id="KINWoWAg_GiYiKx88e6P-42" value="" style="endArrow=none;html=1;rounded=0;exitX=1;exitY=0.5;exitDx=0;exitDy=0;entryX=0;entryY=0.5;entryDx=0;entryDy=0;" edge="1" parent="1" target="KINWoWAg_GiYiKx88e6P-45">
          <mxGeometry relative="1" as="geometry">
            <mxPoint x="260" y="759.5" as="sourcePoint" />
            <mxPoint x="580" y="759.5" as="targetPoint" />
          </mxGeometry>
        </mxCell>
        <mxCell id="KINWoWAg_GiYiKx88e6P-43" value="1" style="resizable=0;html=1;whiteSpace=wrap;align=left;verticalAlign=bottom;" connectable="0" vertex="1" parent="KINWoWAg_GiYiKx88e6P-42">
          <mxGeometry x="-1" relative="1" as="geometry" />
        </mxCell>
        <mxCell id="KINWoWAg_GiYiKx88e6P-45" value="Presiede" style="shape=rhombus;perimeter=rhombusPerimeter;whiteSpace=wrap;html=1;align=center;" vertex="1" parent="1">
          <mxGeometry x="380" y="730" width="120" height="60" as="geometry" />
        </mxCell>
        <mxCell id="KINWoWAg_GiYiKx88e6P-49" value="" style="endArrow=none;html=1;rounded=0;dashed=1;dashPattern=1 2;" edge="1" parent="1">
          <mxGeometry relative="1" as="geometry">
            <mxPoint x="500" y="760" as="sourcePoint" />
            <mxPoint x="580" y="760" as="targetPoint" />
          </mxGeometry>
        </mxCell>
        <mxCell id="KINWoWAg_GiYiKx88e6P-50" value="N" style="resizable=0;html=1;whiteSpace=wrap;align=right;verticalAlign=bottom;" connectable="0" vertex="1" parent="KINWoWAg_GiYiKx88e6P-49">
          <mxGeometry x="1" relative="1" as="geometry" />
        </mxCell>
      </root>
    </mxGraphModel>
  </diagram>
</mxfile>
